<?xml version="1.0" encoding="UTF-8"?>
<!DOCTYPE svg PUBLIC "-//W3C//DTD SVG 1.1//EN" "http://www.w3.org/Graphics/SVG/1.1/DTD/svg11.dtd">
<svg xmlns="http://www.w3.org/2000/svg" version="1.1" width="1706px" height="688px" style="shape-rendering:geometricPrecision; text-rendering:geometricPrecision; image-rendering:optimizeQuality; fill-rule:evenodd; clip-rule:evenodd" xmlns:xlink="http://www.w3.org/1999/xlink">
<g><path style="opacity:1" fill="#fefffe" d="M -0.5,-0.5 C 237.5,-0.5 475.5,-0.5 713.5,-0.5C 596.164,10.3893 504.331,64.0559 438,160.5C 419.234,189.624 405.4,220.958 396.5,254.5C 395.659,255.926 394.659,257.26 393.5,258.5C 310.747,272.459 228.081,286.959 145.5,302C 127.619,308.578 120.119,321.411 123,340.5C 132.333,393.833 141.667,447.167 151,500.5C 156.553,518.523 168.72,527.023 187.5,526C 263.916,512.709 340.249,499.209 416.5,485.5C 453.883,563.715 512.216,620.548 591.5,656C 637.546,676.015 685.546,686.515 735.5,687.5C 490.167,687.5 244.833,687.5 -0.5,687.5C -0.5,458.167 -0.5,228.833 -0.5,-0.5 Z"/></g>
<g><path style="opacity:1" fill="#ca1715" d="M 713.5,-0.5 C 731.167,-0.5 748.833,-0.5 766.5,-0.5C 861.523,7.76383 941.689,46.4305 1007,115.5C 1015.57,124.986 1023.4,134.986 1030.5,145.5C 1028.7,146.458 1026.7,147.125 1024.5,147.5C 957.172,60.4904 868.172,13.3237 757.5,6C 639.203,2.4171 541.703,45.2504 465,134.5C 435.75,170.676 414.917,211.343 402.5,256.5C 401.292,257.234 399.959,257.567 398.5,257.5C 396.952,257.179 396.285,256.179 396.5,254.5C 405.4,220.958 419.234,189.624 438,160.5C 504.331,64.0559 596.164,10.3893 713.5,-0.5 Z"/></g>
<g><path style="opacity:1" fill="#fefffe" d="M 766.5,-0.5 C 1079.5,-0.5 1392.5,-0.5 1705.5,-0.5C 1705.5,228.833 1705.5,458.167 1705.5,687.5C 1385.17,687.5 1064.83,687.5 744.5,687.5C 862.441,683.282 957.608,634.948 1030,542.5C 1068.04,490.052 1089.54,431.385 1094.5,366.5C 1173.17,352.734 1251.83,338.901 1330.5,325C 1349.84,319.985 1358.67,307.485 1357,287.5C 1347.46,232.81 1337.8,178.143 1328,123.5C 1322.81,108.642 1312.31,100.642 1296.5,99.5C 1207.86,115.051 1119.19,130.385 1030.5,145.5C 1023.4,134.986 1015.57,124.986 1007,115.5C 941.689,46.4305 861.523,7.76383 766.5,-0.5 Z"/></g>
<g><path style="opacity:1" fill="#c1bebf" d="M 1024.5,147.5 C 1020.78,148.628 1017.12,148.962 1013.5,148.5C 950.104,69.7914 867.771,25.6247 766.5,16C 650.645,9.04089 553.478,47.8742 475,132.5C 443.384,168.722 420.884,210.055 407.5,256.5C 405.833,256.5 404.167,256.5 402.5,256.5C 414.917,211.343 435.75,170.676 465,134.5C 541.703,45.2504 639.203,2.4171 757.5,6C 868.172,13.3237 957.172,60.4904 1024.5,147.5 Z"/></g>
<g><path style="opacity:1" fill="#0b1762" d="M 1024.5,147.5 C 1026.7,147.125 1028.7,146.458 1030.5,145.5C 1119.19,130.385 1207.86,115.051 1296.5,99.5C 1312.31,100.642 1322.81,108.642 1328,123.5C 1337.8,178.143 1347.46,232.81 1357,287.5C 1358.67,307.485 1349.84,319.985 1330.5,325C 1251.83,338.901 1173.17,352.734 1094.5,366.5C 1092.05,366.298 1089.72,366.631 1087.5,367.5C 1085.21,367.244 1083.04,367.577 1081,368.5C 1067.68,487.416 1009.18,576.25 905.5,635C 817.606,679.825 726.272,688.491 631.5,661C 538.651,630.482 470.151,571.649 426,484.5C 424.708,483.209 423.542,483.209 422.5,484.5C 420.435,484.517 418.435,484.85 416.5,485.5C 340.249,499.209 263.916,512.709 187.5,526C 168.72,527.023 156.553,518.523 151,500.5C 141.667,447.167 132.333,393.833 123,340.5C 120.119,321.411 127.619,308.578 145.5,302C 228.081,286.959 310.747,272.459 393.5,258.5C 395.415,258.784 397.081,258.451 398.5,257.5C 399.959,257.567 401.292,257.234 402.5,256.5C 404.167,256.5 405.833,256.5 407.5,256.5C 420.884,210.055 443.384,168.722 475,132.5C 553.478,47.8742 650.645,9.04089 766.5,16C 867.771,25.6247 950.104,69.7914 1013.5,148.5C 1017.12,148.962 1020.78,148.628 1024.5,147.5 Z"/></g>
<g><path style="opacity:1" fill="#fefefe" d="M 858.5,176.5 C 811.862,147.072 761.195,136.906 706.5,146C 653.96,156.432 611.293,182.599 578.5,224.5C 577.466,225.687 576.133,226.52 574.5,227C 524.159,235.787 473.826,244.62 423.5,253.5C 422.5,253.167 421.5,252.833 420.5,252.5C 458.567,145.934 531.567,75.4342 639.5,41C 739.177,13.8382 833.177,26.8382 921.5,80C 951.749,99.4115 978.083,123.245 1000.5,151.5C 953.162,159.834 905.829,168.168 858.5,176.5 Z"/></g>
<g><path style="opacity:1" fill="#fdfdfd" d="M 1336.5,243.5 C 1336.77,245.099 1336.43,246.432 1335.5,247.5C 1329,219.316 1323,190.983 1317.5,162.5C 1298.61,165.203 1279.94,168.536 1261.5,172.5C 1260.83,184.167 1260.17,195.833 1259.5,207.5C 1256.3,197.743 1252.8,188.076 1249,178.5C 1248.52,176.522 1247.35,175.189 1245.5,174.5C 1227.96,178.338 1210.3,181.338 1192.5,183.5C 1196.85,218.082 1201.51,252.582 1206.5,287C 1218.14,286.088 1229.64,284.255 1241,281.5C 1241.67,278.167 1241.67,274.833 1241,271.5C 1238.95,258.501 1237.29,245.501 1236,232.5C 1242.11,248.511 1248.77,264.177 1256,279.5C 1267.16,277.301 1278.32,275.301 1289.5,273.5C 1289.74,255.47 1290.58,237.47 1292,219.5C 1295.84,236.18 1299.67,252.846 1303.5,269.5C 1304.5,269.833 1305.5,270.167 1306.5,270.5C 1316.79,268.506 1327.13,266.84 1337.5,265.5C 1338.61,265.443 1339.61,265.11 1340.5,264.5C 1343.42,275.992 1344.58,287.659 1344,299.5C 1339.89,308.653 1332.72,313.486 1322.5,314C 966.044,376.025 609.711,438.691 253.5,502C 232.396,505.128 211.396,508.795 190.5,513C 178.176,515.919 169.343,511.752 164,500.5C 162.247,490.806 160.414,481.14 158.5,471.5C 168.811,469.704 179.145,468.038 189.5,466.5C 189.5,459.167 189.5,451.833 189.5,444.5C 195.804,443.394 202.137,442.394 208.5,441.5C 209.833,441.833 211.167,442.167 212.5,442.5C 215,448.167 217.5,453.833 220,459.5C 220.725,460.059 221.558,460.392 222.5,460.5C 234.946,458.674 247.279,456.341 259.5,453.5C 243.163,420.824 226.33,388.491 209,356.5C 194.208,358.701 179.542,361.367 165,364.5C 161.194,390.646 157.361,416.646 153.5,442.5C 146.795,405.896 140.461,369.229 134.5,332.5C 135.689,322.142 141.356,315.642 151.5,313C 531.215,246.233 910.882,179.567 1290.5,113C 1307.1,111.26 1316.27,118.76 1318,135.5C 1324.21,171.454 1330.38,207.454 1336.5,243.5 Z"/></g>
<g><path style="opacity:1" fill="#db2620" d="M 858.5,176.5 C 856.621,177.341 854.621,177.675 852.5,177.5C 793.914,143.006 732.581,137.506 668.5,161C 634.696,174.896 606.363,196.063 583.5,224.5C 581.833,225.833 580.167,225.833 578.5,224.5C 611.293,182.599 653.96,156.432 706.5,146C 761.195,136.906 811.862,147.072 858.5,176.5 Z"/></g>
<g><path style="opacity:1" fill="#d7d7d7" d="M 727.5,154.5 C 767.78,151.822 805.447,160.322 840.5,180C 760.083,193.736 679.749,207.903 599.5,222.5C 598.833,222.167 598.167,221.833 597.5,221.5C 632.335,182.749 675.669,160.415 727.5,154.5 Z"/></g>
<g><path style="opacity:1" fill="#100908" d="M 1335.5,247.5 C 1336.24,252.215 1337.24,256.881 1338.5,261.5C 1338.38,262.925 1338.04,264.258 1337.5,265.5C 1327.13,266.84 1316.79,268.506 1306.5,270.5C 1305.5,270.167 1304.5,269.833 1303.5,269.5C 1299.67,252.846 1295.84,236.18 1292,219.5C 1290.58,237.47 1289.74,255.47 1289.5,273.5C 1278.32,275.301 1267.16,277.301 1256,279.5C 1248.77,264.177 1242.11,248.511 1236,232.5C 1237.29,245.501 1238.95,258.501 1241,271.5C 1241.67,274.833 1241.67,278.167 1241,281.5C 1229.64,284.255 1218.14,286.088 1206.5,287C 1201.51,252.582 1196.85,218.082 1192.5,183.5C 1210.3,181.338 1227.96,178.338 1245.5,174.5C 1247.35,175.189 1248.52,176.522 1249,178.5C 1252.8,188.076 1256.3,197.743 1259.5,207.5C 1259.56,208.043 1259.89,208.376 1260.5,208.5C 1261.5,196.518 1261.83,184.518 1261.5,172.5C 1279.94,168.536 1298.61,165.203 1317.5,162.5C 1323,190.983 1329,219.316 1335.5,247.5 Z"/></g>
<g><path style="opacity:1" fill="#cdc0c5" d="M 852.5,177.5 C 851.749,178.573 850.749,178.74 849.5,178C 796.809,147.229 741.142,140.562 682.5,158C 644.479,171.048 612.812,193.048 587.5,224C 586.207,224.49 584.873,224.657 583.5,224.5C 606.363,196.063 634.696,174.896 668.5,161C 732.581,137.506 793.914,143.006 852.5,177.5 Z"/></g>
<g><path style="opacity:1" fill="#d61111" d="M 1306.5,167.5 C 1309.17,167.5 1311.83,167.5 1314.5,167.5C 1321.17,199.173 1327.84,230.839 1334.5,262.5C 1325.7,262.995 1317.03,264.329 1308.5,266.5C 1307.56,266.392 1306.72,266.059 1306,265.5C 1300.81,240.747 1295.31,216.08 1289.5,191.5C 1287.99,217.828 1286.66,244.161 1285.5,270.5C 1277.06,272.063 1268.56,273.396 1260,274.5C 1258.83,274.167 1257.67,273.833 1256.5,273.5C 1247.29,249.691 1237.79,226.024 1228,202.5C 1231.02,228.144 1234.19,253.811 1237.5,279.5C 1228.07,280.183 1218.73,281.517 1209.5,283.5C 1207.09,262.777 1204.25,242.11 1201,221.5C 1199.66,210.163 1198.66,198.829 1198,187.5C 1213.65,183.919 1229.48,181.253 1245.5,179.5C 1251.37,195.959 1257.54,212.292 1264,228.5C 1264.17,210.824 1264.67,193.157 1265.5,175.5C 1279.31,172.924 1292.97,170.258 1306.5,167.5 Z"/></g>
<g><path style="opacity:1" fill="#4b4b4b" d="M 1261.5,172.5 C 1261.83,184.518 1261.5,196.518 1260.5,208.5C 1259.89,208.376 1259.56,208.043 1259.5,207.5C 1260.17,195.833 1260.83,184.167 1261.5,172.5 Z"/></g>
<g><path style="opacity:1" fill="#120c0b" d="M 1128.5,193.5 C 1160.03,190.541 1178.86,204.541 1185,235.5C 1188.32,251.242 1186.32,266.242 1179,280.5C 1170.85,291.497 1160.02,298.33 1146.5,301C 1110.03,309.537 1087.87,295.704 1080,259.5C 1073.27,229.97 1083.77,209.47 1111.5,198C 1117.25,196.314 1122.92,194.814 1128.5,193.5 Z"/></g>
<g><path style="opacity:1" fill="#d71111" d="M 1128.5,197.5 C 1157.4,194.576 1174.9,207.243 1181,235.5C 1184.51,250.961 1182.51,265.627 1175,279.5C 1166.22,290.477 1154.72,296.643 1140.5,298C 1132.17,298.667 1123.83,298.667 1115.5,298C 1104.47,295.636 1096.3,289.469 1091,279.5C 1084.73,265.483 1082.06,250.816 1083,235.5C 1085.5,220.657 1093.67,210.157 1107.5,204C 1114.4,201.085 1121.4,198.919 1128.5,197.5 Z"/></g>
<g><path style="opacity:1" fill="#110c0c" d="M 1062.5,222.5 C 1062.78,227.595 1062.45,232.595 1061.5,237.5C 1048.98,238.673 1036.81,241.34 1025,245.5C 1024.03,255.703 1025.03,265.703 1028,275.5C 1030.87,284.849 1037.03,288.349 1046.5,286C 1055.36,284.546 1064.03,282.379 1072.5,279.5C 1075.13,286.333 1077.29,293.333 1079,300.5C 1079.81,302.579 1079.64,304.579 1078.5,306.5C 1057.59,318.822 1035.59,321.655 1012.5,315C 998.281,307.437 989.781,295.604 987,279.5C 979.094,241.799 993.927,218.966 1031.5,211C 1041.45,209.669 1051.45,209.169 1061.5,209.5C 1062.2,213.798 1062.53,218.131 1062.5,222.5 Z"/></g>
<g><path style="opacity:1" fill="#d61111" d="M 1038.5,213.5 C 1044.84,213.334 1051.18,213.5 1057.5,214C 1059.31,220.407 1059.64,226.907 1058.5,233.5C 1047.79,235.341 1037.12,237.507 1026.5,240C 1023.67,240.833 1021.83,242.667 1021,245.5C 1019.32,257.658 1020.99,269.324 1026,280.5C 1029.13,286.485 1033.96,289.818 1040.5,290.5C 1050.38,289.523 1060.05,287.523 1069.5,284.5C 1072.18,290.389 1074.18,296.556 1075.5,303C 1074.14,304.689 1072.48,306.022 1070.5,307C 1056.83,313.336 1042.5,316.002 1027.5,315C 1005.97,311.139 993.474,298.305 990,276.5C 983.31,249.505 992.477,230.339 1017.5,219C 1024.51,216.666 1031.51,214.833 1038.5,213.5 Z"/></g>
<g><path style="opacity:1" fill="#140d0d" d="M 1126.5,218.5 C 1132.53,217.676 1137.69,219.342 1142,223.5C 1150.36,238.612 1152.69,254.612 1149,271.5C 1140.85,280.198 1132.52,280.532 1124,272.5C 1117.06,257.282 1114.4,241.282 1116,224.5C 1119.1,221.648 1122.6,219.648 1126.5,218.5 Z"/></g>
<g><path style="opacity:1" fill="#fbfbfb" d="M 1126.5,222.5 C 1137.14,222.293 1142.97,227.627 1144,238.5C 1146.36,248.038 1147.03,257.705 1146,267.5C 1145.07,271.395 1142.57,273.562 1138.5,274C 1132.8,275.565 1128.63,273.732 1126,268.5C 1120.57,254.648 1118.74,240.314 1120.5,225.5C 1122.6,224.481 1124.6,223.481 1126.5,222.5 Z"/></g>
<g><path style="opacity:1" fill="#7a7a7a" d="M 1062.5,222.5 C 1063.16,224.81 1063.5,227.31 1063.5,230C 1063.48,232.929 1062.81,235.429 1061.5,237.5C 1062.45,232.595 1062.78,227.595 1062.5,222.5 Z"/></g>
<g><path style="opacity:1" fill="#100a0a" d="M 878.5,238.5 C 881.572,238.183 884.572,238.516 887.5,239.5C 903.706,271.412 920.039,303.245 936.5,335C 923.621,337.376 910.788,339.876 898,342.5C 894.339,336.178 891.505,329.512 889.5,322.5C 881.817,323.03 874.317,324.363 867,326.5C 866.452,333.835 865.952,341.169 865.5,348.5C 852.406,349.986 839.406,351.986 826.5,354.5C 831.427,318.158 836.427,281.824 841.5,245.5C 854.009,243.473 866.343,241.14 878.5,238.5 Z"/></g>
<g><path style="opacity:1" fill="#d61111" d="M 878.5,242.5 C 880.924,242.192 883.257,242.526 885.5,243.5C 900.5,272.833 915.5,302.167 930.5,331.5C 921.484,334.099 912.317,336.099 903,337.5C 901.564,337.441 900.231,337.108 899,336.5C 896.74,330.736 894.24,325.069 891.5,319.5C 890.167,319.167 888.833,318.833 887.5,318.5C 879.529,320.047 871.529,321.38 863.5,322.5C 862.813,329.813 862.479,337.146 862.5,344.5C 852.144,346.059 841.811,347.726 831.5,349.5C 835.674,316.129 840.174,282.796 845,249.5C 856.248,247.101 867.415,244.768 878.5,242.5 Z"/></g>
<g><path style="opacity:1" fill="#b7b9c7" d="M 1336.5,243.5 C 1338.14,250.316 1339.47,257.316 1340.5,264.5C 1339.61,265.11 1338.61,265.443 1337.5,265.5C 1338.04,264.258 1338.38,262.925 1338.5,261.5C 1337.24,256.881 1336.24,252.215 1335.5,247.5C 1336.43,246.432 1336.77,245.099 1336.5,243.5 Z"/></g>
<g><path style="opacity:1" fill="#120b0a" d="M 821.5,248.5 C 822.5,248.5 823.5,248.5 824.5,248.5C 817.279,274 809.946,299.5 802.5,325C 805.197,336.049 807.197,347.216 808.5,358.5C 796.129,360.208 783.795,362.208 771.5,364.5C 768.602,353.651 766.435,342.651 765,331.5C 749.378,310.422 733.878,289.255 718.5,268C 731.028,264.746 743.695,262.246 756.5,260.5C 763.889,270.404 770.722,280.737 777,291.5C 780.077,279.693 782.91,267.86 785.5,256C 797.635,253.536 809.635,251.036 821.5,248.5 Z"/></g>
<g><path style="opacity:1" fill="#d61111" d="M 812.5,254.5 C 814.5,254.5 816.5,254.5 818.5,254.5C 812.493,276.192 806.326,297.859 800,319.5C 799.333,323.167 799.333,326.833 800,330.5C 801.82,338.752 802.987,347.085 803.5,355.5C 793.466,356.624 783.466,357.957 773.5,359.5C 772.086,349.107 770.253,338.774 768,328.5C 753.589,309.344 739.422,290.011 725.5,270.5C 735.634,267.477 745.967,265.977 756.5,266C 764.125,278.083 771.625,290.25 779,302.5C 782.273,288.184 785.439,273.851 788.5,259.5C 796.525,257.389 804.525,255.723 812.5,254.5 Z"/></g>
<g><path style="opacity:1" fill="#4b1021" d="M 396.5,254.5 C 396.285,256.179 396.952,257.179 398.5,257.5C 397.081,258.451 395.415,258.784 393.5,258.5C 394.659,257.26 395.659,255.926 396.5,254.5 Z"/></g>
<g><path style="opacity:1" fill="#110a09" d="M 694.5,264.5 C 702.119,263.726 709.286,265.06 716,268.5C 716.667,277.167 716.667,285.833 716,294.5C 715.273,299.741 713.773,304.741 711.5,309.5C 705.272,311.99 698.939,312.156 692.5,310C 690.812,307.175 689.979,304.009 690,300.5C 688.951,305.651 687.117,310.484 684.5,315C 677.798,317.144 671.298,316.644 665,313.5C 664.732,299.436 664.065,285.436 663,271.5C 671.455,268.932 679.955,268.932 688.5,271.5C 688.215,269.712 688.548,268.045 689.5,266.5C 691.336,265.972 693.003,265.306 694.5,264.5 Z"/></g>
<g><path style="opacity:1" fill="#0f0605" d="M 867.5,266.5 C 873.059,277.286 878.392,288.286 883.5,299.5C 877.137,300.727 870.804,302.06 864.5,303.5C 864.167,303.167 863.833,302.833 863.5,302.5C 865.197,290.556 866.531,278.556 867.5,266.5 Z"/></g>
<g><path style="opacity:1" fill="#d41111" d="M 694.5,268.5 C 700.328,268.05 705.995,268.716 711.5,270.5C 712.665,278.145 712.831,285.812 712,293.5C 711.611,298.056 710.445,302.39 708.5,306.5C 703.95,307.8 699.45,307.8 695,306.5C 694.801,295.115 693.967,283.782 692.5,272.5C 692.803,270.886 693.47,269.552 694.5,268.5 Z"/></g>
<g><path style="opacity:1" fill="#d41111" d="M 667.5,273.5 C 673.593,273.139 679.593,273.639 685.5,275C 687.326,286.99 686.492,298.823 683,310.5C 681.178,312.045 679.011,312.712 676.5,312.5C 673.803,312.297 671.136,311.964 668.5,311.5C 668.816,299.768 668.149,288.102 666.5,276.5C 666.685,275.416 667.018,274.416 667.5,273.5 Z"/></g>
<g><path style="opacity:1" fill="#130c0b" d="M 621.5,283.5 C 629.858,283.379 638.191,283.712 646.5,284.5C 646.5,293.833 646.5,303.167 646.5,312.5C 634.801,313.133 623.135,314.133 611.5,315.5C 611.36,317.124 612.027,318.29 613.5,319C 622.837,320.667 632.171,322.334 641.5,324C 659.262,331.683 666.429,345.183 663,364.5C 659.683,375.152 652.85,382.652 642.5,387C 623.959,392.887 604.959,395.054 585.5,393.5C 585.5,383.833 585.5,374.167 585.5,364.5C 599.251,364.397 612.918,363.397 626.5,361.5C 626.5,360.5 626.5,359.5 626.5,358.5C 616.843,356.63 607.176,354.797 597.5,353C 582.584,346.902 574.918,335.735 574.5,319.5C 574.683,309.977 578.017,301.81 584.5,295C 596.233,288.824 608.566,284.99 621.5,283.5 Z"/></g>
<g><path style="opacity:1" fill="#e9e9e9" d="M 869.5,280.5 C 871.136,281.749 872.303,283.416 873,285.5C 874.798,289.422 876.298,293.422 877.5,297.5C 874.751,297.274 872.084,297.607 869.5,298.5C 868.957,292.546 868.957,286.546 869.5,280.5 Z"/></g>
<g><path style="opacity:1" fill="#d61111" d="M 620.5,287.5 C 627.833,287.5 635.167,287.5 642.5,287.5C 642.5,294.5 642.5,301.5 642.5,308.5C 631.071,309.286 619.738,310.786 608.5,313C 606.166,318.246 607.832,321.579 613.5,323C 623.643,324.357 633.643,326.357 643.5,329C 656.883,336.613 662.05,348.113 659,363.5C 655.605,374.811 648.105,381.977 636.5,385C 621.124,389.198 605.457,391.032 589.5,390.5C 589.5,383.167 589.5,375.833 589.5,368.5C 600.525,368.054 611.525,367.22 622.5,366C 629.467,366.366 631.967,363.199 630,356.5C 629.25,355.874 628.416,355.374 627.5,355C 618.887,353.116 610.22,351.449 601.5,350C 584.222,343.957 576.722,331.79 579,313.5C 580.406,303.512 585.906,297.012 595.5,294C 603.749,291.022 612.082,288.856 620.5,287.5 Z"/></g>
<g><path style="opacity:1" fill="#120e0e" d="M 953.5,291.5 C 971.949,290.449 980.449,299.116 979,317.5C 974.316,329.636 965.483,334.469 952.5,332C 941.851,326.874 937.351,318.374 939,306.5C 942.021,299.647 946.855,294.647 953.5,291.5 Z"/></g>
<g><path style="opacity:1" fill="#d51111" d="M 955.5,295.5 C 973.034,296.225 978.867,304.892 973,321.5C 966.399,328.956 958.566,330.456 949.5,326C 940.687,317.215 940.354,308.215 948.5,299C 950.713,297.384 953.047,296.217 955.5,295.5 Z"/></g>
<g><path style="opacity:1" fill="#120a09" d="M 505.5,302.5 C 539.873,297.76 560.04,312.427 566,346.5C 568.616,362.549 565.949,377.549 558,391.5C 549.355,401.409 538.521,407.576 525.5,410C 490.451,417.56 468.951,404.06 461,369.5C 454.082,344.551 461.249,325.051 482.5,311C 490.018,307.442 497.685,304.609 505.5,302.5 Z"/></g>
<g><path style="opacity:1" fill="#d71111" d="M 506.5,306.5 C 538.524,302.079 557.024,315.745 562,347.5C 566.466,387.873 548.299,407.873 507.5,407.5C 486.071,407.576 472.571,397.243 467,376.5C 455.103,338.6 468.27,315.267 506.5,306.5 Z"/></g>
<g><path style="opacity:1" fill="#100b0b" d="M 441.5,315.5 C 443.167,315.5 444.833,315.5 446.5,315.5C 448.454,324.822 449.454,334.156 449.5,343.5C 441.535,345.106 433.535,346.606 425.5,348C 424.978,348.561 424.645,349.228 424.5,350C 427.966,371.56 431.799,393.06 436,414.5C 436.667,417.167 436.667,419.833 436,422.5C 423.653,425.449 411.153,427.782 398.5,429.5C 395.15,404.736 391.15,380.069 386.5,355.5C 377.44,356.51 368.44,357.844 359.5,359.5C 357.325,349.934 355.659,340.267 354.5,330.5C 383.733,326.137 412.733,321.137 441.5,315.5 Z"/></g>
<g><path style="opacity:1" fill="#d61111" d="M 438.5,319.5 C 440.167,319.5 441.833,319.5 443.5,319.5C 444.392,326.518 445.392,333.518 446.5,340.5C 437.421,341.916 428.421,343.75 419.5,346C 424.423,370.702 428.756,395.535 432.5,420.5C 423.386,421.088 414.386,422.421 405.5,424.5C 404.228,424.43 403.062,424.097 402,423.5C 398.323,399.773 394.323,376.106 390,352.5C 389.481,351.484 388.647,350.818 387.5,350.5C 380.53,351.993 373.53,353.326 366.5,354.5C 365.167,354.167 363.833,353.833 362.5,353.5C 360.656,346.965 359.656,340.298 359.5,333.5C 386.052,329.354 412.386,324.687 438.5,319.5 Z"/></g>
<g><path style="opacity:1" fill="#100908" d="M 505.5,327.5 C 518.352,326.015 525.852,331.682 528,344.5C 531.03,353.953 532.03,363.62 531,373.5C 530.457,379.705 527.29,383.871 521.5,386C 512.153,388.576 505.653,385.41 502,376.5C 497.155,362.567 495.155,348.233 496,333.5C 498.843,330.837 502.009,328.837 505.5,327.5 Z"/></g>
<g><path style="opacity:1" fill="#fbfbfb" d="M 505.5,331.5 C 514.426,329.544 520.26,332.877 523,341.5C 526.675,352.221 528.008,363.221 527,374.5C 526.484,377.034 525.317,379.2 523.5,381C 519.239,382.363 514.905,382.696 510.5,382C 508.641,380.442 507.141,378.609 506,376.5C 501.108,362.914 499.108,348.914 500,334.5C 501.876,333.391 503.709,332.391 505.5,331.5 Z"/></g>
<g><path style="opacity:1" fill="#120c0b" d="M 337.5,333.5 C 340.119,333.232 342.619,333.565 345,334.5C 348.826,354.804 352.493,375.137 356,395.5C 361.07,419.887 351.903,435.721 328.5,443C 314.792,447.263 300.792,448.929 286.5,448C 270.701,443.866 261.535,433.699 259,417.5C 254.838,394.86 251.004,372.193 247.5,349.5C 260.127,347.292 272.793,345.292 285.5,343.5C 288.507,367.054 292.674,390.387 298,413.5C 298.785,415.286 299.951,416.786 301.5,418C 307.527,419.034 313.194,418.034 318.5,415C 319.097,413.938 319.43,412.772 319.5,411.5C 315.241,387.207 311.241,362.873 307.5,338.5C 317.721,337.435 327.721,335.768 337.5,333.5 Z"/></g>
<g><path style="opacity:1" fill="#d61111" d="M 336.5,337.5 C 341.367,336.533 343.534,338.533 343,343.5C 346,360.833 349,378.167 352,395.5C 356.986,415.69 350.152,429.856 331.5,438C 317.167,442.481 302.5,444.481 287.5,444C 272.625,439.785 264.125,429.952 262,414.5C 258.497,393.8 254.997,373.133 251.5,352.5C 261.225,351.157 270.892,349.49 280.5,347.5C 281.086,347.709 281.586,348.043 282,348.5C 285.69,371.308 290.023,393.975 295,416.5C 298.472,421.816 303.305,423.649 309.5,422C 313.685,421.242 317.685,419.909 321.5,418C 323.028,416.352 323.695,414.352 323.5,412C 319.454,389.179 315.454,366.346 311.5,343.5C 319.763,340.983 328.097,338.983 336.5,337.5 Z"/></g>
<g><path style="opacity:1" fill="#100a0a" d="M 158.5,471.5 C 155.598,472.578 152.598,473.244 149.5,473.5C 151.02,463.192 152.354,452.859 153.5,442.5C 157.361,416.646 161.194,390.646 165,364.5C 179.542,361.367 194.208,358.701 209,356.5C 226.33,388.491 243.163,420.824 259.5,453.5C 247.279,456.341 234.946,458.674 222.5,460.5C 221.558,460.392 220.725,460.059 220,459.5C 217.5,453.833 215,448.167 212.5,442.5C 211.167,442.167 209.833,441.833 208.5,441.5C 202.137,442.394 195.804,443.394 189.5,444.5C 189.5,451.833 189.5,459.167 189.5,466.5C 179.145,468.038 168.811,469.704 158.5,471.5 Z"/></g>
<g><path style="opacity:1" fill="#d71111" d="M 199.5,361.5 C 202.777,361.216 205.943,361.549 209,362.5C 224.393,391.952 239.226,421.619 253.5,451.5C 243.665,453.053 233.832,454.72 224,456.5C 220.32,450.473 217.153,444.14 214.5,437.5C 205.117,437.793 195.783,439.126 186.5,441.5C 185.813,448.813 185.479,456.146 185.5,463.5C 175.078,464.703 164.745,466.37 154.5,468.5C 158.963,435.171 163.463,401.838 168,368.5C 178.5,365.835 189,363.502 199.5,361.5 Z"/></g>
<g><path style="opacity:1" fill="#c81815" d="M 1094.5,366.5 C 1089.54,431.385 1068.04,490.052 1030,542.5C 957.608,634.948 862.441,683.282 744.5,687.5C 741.5,687.5 738.5,687.5 735.5,687.5C 685.546,686.515 637.546,676.015 591.5,656C 512.216,620.548 453.883,563.715 416.5,485.5C 418.435,484.85 420.435,484.517 422.5,484.5C 469.961,577.435 543.961,638.601 644.5,668C 739.163,692.042 829.496,681.042 915.5,635C 1004.56,583.454 1060.39,507.288 1083,406.5C 1085.67,393.632 1087.17,380.632 1087.5,367.5C 1089.72,366.631 1092.05,366.298 1094.5,366.5 Z"/></g>
<g><path style="opacity:1" fill="#bdb9bc" d="M 1087.5,367.5 C 1087.17,380.632 1085.67,393.632 1083,406.5C 1060.39,507.288 1004.56,583.454 915.5,635C 829.496,681.042 739.163,692.042 644.5,668C 543.961,638.601 469.961,577.435 422.5,484.5C 423.542,483.209 424.708,483.209 426,484.5C 470.151,571.649 538.651,630.482 631.5,661C 726.272,688.491 817.606,679.825 905.5,635C 1009.18,576.25 1067.68,487.416 1081,368.5C 1083.04,367.577 1085.21,367.244 1087.5,367.5 Z"/></g>
<g><path style="opacity:1" fill="#fefefe" d="M 566.5,459.5 C 608.608,524.236 668.608,557.236 746.5,558.5C 828.45,555.298 889.617,518.298 930,447.5C 939.19,429.762 945.69,411.096 949.5,391.5C 989.188,384.279 1028.85,377.279 1068.5,370.5C 1054.14,489.628 993.809,576.461 887.5,631C 807.368,668.362 724.701,675.029 639.5,651C 548.7,622.518 481.366,566.185 437.5,482C 480.237,473.432 523.237,465.932 566.5,459.5 Z"/></g>
<g><path style="opacity:1" fill="#100504" d="M 190.5,385.5 C 196.315,395.796 201.648,406.463 206.5,417.5C 200.333,419.584 194,420.917 187.5,421.5C 188.236,409.477 189.236,397.477 190.5,385.5 Z"/></g>
<g><path style="opacity:1" fill="#cfcbce" d="M 945.5,392.5 C 932.12,451.128 899.786,495.961 848.5,527C 788.203,559.479 726.203,563.146 662.5,538C 623.908,520.568 593.241,494.068 570.5,458.5C 572.035,457.212 573.701,457.212 575.5,458.5C 620.539,524.516 683.205,555.016 763.5,550C 842.423,539.821 898.256,498.654 931,426.5C 934.946,415.665 938.279,404.665 941,393.5C 942.356,392.62 943.856,392.286 945.5,392.5 Z"/></g>
<g><path style="opacity:1" fill="#db2821" d="M 949.5,391.5 C 945.69,411.096 939.19,429.762 930,447.5C 889.617,518.298 828.45,555.298 746.5,558.5C 668.608,557.236 608.608,524.236 566.5,459.5C 567.568,458.566 568.901,458.232 570.5,458.5C 593.241,494.068 623.908,520.568 662.5,538C 726.203,563.146 788.203,559.479 848.5,527C 899.786,495.961 932.12,451.128 945.5,392.5C 946.568,391.566 947.901,391.232 949.5,391.5 Z"/></g>
<g><path style="opacity:1" fill="#d7d7d8" d="M 927.5,394.5 C 929.833,394.5 932.167,394.5 934.5,394.5C 917.422,461.413 876.756,507.58 812.5,533C 738.927,557.151 672.594,544.484 613.5,495C 601.137,483.48 590.47,470.647 581.5,456.5C 696.979,435.811 812.313,415.144 927.5,394.5 Z"/></g>
<g><path style="opacity:1" fill="#e6e6e6" d="M 193.5,399.5 C 196.247,404.535 198.914,409.702 201.5,415C 198.51,415.897 195.51,416.731 192.5,417.5C 191.898,411.496 192.232,405.496 193.5,399.5 Z"/></g>
</svg>
